<?xml version="1.0" encoding="utf-8"?><svg version="1.1" xmlns="http://www.w3.org/2000/svg" xmlns:xlink="http://www.w3.org/1999/xlink" x="0" y="0" viewBox="0 0 512 512" style="enable-background:new 0 0 512 512" xml:space="preserve">
<style>
.airfav-1 { 
  fill:none;
  stroke:#522b0d;
  stroke-width:1.5;
  stroke-miterlimit:10;
  stroke-dasharray:12.8177,8.5451;
}
.airfav-yellow {
  fill:#ffdf99;
}
.airfav-deepteal {
  fill:#075555;
}
@media (prefers-color-scheme: dark) {
  .airfav-yellow {
    fill:#fbe6b6;
  }
  .airfav-deepteal {
    fill:#067474;
  }
}
</style>
<path class="airfav-deepteal" d="M0 0h512v512H0z"/>
  <defs>
    <path id="airfav-id-1" d="M0 253.2h512V464H0z"/>
  </defs>
  <clipPath id="airfav-id-clip">
    <use xlink:href="#airfav-id-1" style="overflow:visible"/>
  </clipPath>
  <g style="clip-path:url(#airfav-id-clip)">
    <path class="airfav-1" d="m-120.8 464 125-125.4M-108 464 2.8 352.8M-95.2 464l125-125.4M-82.4 464 28.4 352.8M-69.6 464 41.2 352.8M-56.8 464 61.1 345.7M-44 464 66.8 352.8M-31.2 464 86.7 345.7M-18.4 464 85.3 360M-5.6 464 91 367.1M7.2 464l96.6-96.9M20 464l103.7-104M32.8 464l89.5-89.8M45.6 464l89.5-89.8M58.4 464l110.8-111.2M71.2 464l96.6-96.9M84 464l96.6-96.9M96.8 464l82.4-82.6M109.6 464l82.4-82.6M122.4 464l89.5-89.8M135.2 464l82.4-82.6M148 464l89.5-89.8M160.8 464l75.2-75.5M173.6 464l75.2-75.5M186.4 464l75.2-75.5M199.2 464l82.4-82.6M212 464l68.1-68.4M224.8 464l68.1-68.4M237.6 464l75.2-75.5M250.4 464l75.2-75.5M263.2 464l68.1-68.4M276 464l68.1-68.4M288.8 464l68.1-68.4M301.6 464l53.9-54.1M314.4 464l53.9-54.1M327.2 464l61-61.2M340 464l61-61.2M352.8 464l68.1-68.4M365.6 464l46.8-47M378.4 464l46.8-47M391.2 464l39.7-39.9M404 464l39.7-39.9M416.8 464l46.8-47M429.6 464l32.6-32.7M442.4 464l32.6-32.7M455.2 464l32.6-32.7M468 464l25.5-25.6M480.8 464l25.5-25.6M493.6 464l25.5-25.6M506.4 464l32.6-32.7M519.2 464l32.6-32.7M532 464l18.4-18.5M544.8 464l18.4-18.5M557.6 464l18.4-18.5M570.4 464l25.5-25.6M583.2 464l25.5-25.6M596 464l18.4-18.5M608.8 464l18.4-18.5M621.6 464l18.4-18.5M634.4 464l25.5-25.6M647.2 464l32.6-32.7M660 464l25.5-25.6M672.8 464l18.4-18.5M685.6 464l18.4-18.5M698.4 464l18.4-18.5M711.2 464l18.4-18.5M724 464l11.2-11.3M736.8 464l11.2-11.3M749.6 464l11.2-11.3M762.4 464l11.2-11.3M775.2 464l11.2-11.3M788 464l11.2-11.3M800.8 464l18.4-18.5M813.6 464l18.4-18.5M826.4 464l11.2-11.3M839.2 464l11.2-11.3M852 464l11.2-11.3M864.8 464l11.2-11.3M877.6 464l11.2-11.3M890.4 464l18.4-18.5M903.2 464l18.4-18.5M916 464l18.4-18.5M928.8 464l11.2-11.3M941.6 464l11.2-11.3M954.4 464l11.2-11.3M967.2 464l4.1-4.2M980 464l4.1-4.2M992.8 464l4.1-4.2"/>
  </g>
  <g>
    <path class="airfav-yellow" d="M169.7 399.7V415h-45.6V245.9H93.6v153.8h15.3V415H48v-15.3l15.3-2V68.8c0-10 10.4-20.8 22.8-20.8h45.6c12.7 0 22.8 10.7 22.8 20.8v328.9l15.2 2zm-45.5-169.1V63.3H93.6v167.3h30.6zM214.7 238.9c0 9.8-7.5 17.3-17.3 17.3-9.4 0-16.9-7.5-16.9-17.3 0-9.4 7.5-16.9 16.9-16.9 9.9 0 17.3 7.5 17.3 16.9zM225.6 399.7h15.3V63.3h-15.3V48h60.9v15.3h-15.3v336.4h15.3V415h-60.9v-15.3zM331.4 238.9c0 9.8-7.5 17.3-17.3 17.3-9.4 0-16.9-7.5-16.9-17.3 0-9.4 7.5-16.9 16.9-16.9 9.8 0 17.3 7.5 17.3 16.9zM448.7 70.8v127.6c0 20.5-16.9 38.4-38.1 39.1 21.2.7 38.1 17.6 38.1 38.1v124.1H464V415h-45.6V264.2c0-10.4-8.8-19.2-19.2-19.2h-11.4v154.7h15.3V415h-60.9v-15.3l15.3 1V64.3l-15.3-1V48h83.7c12.7 0 22.8 10.7 22.8 22.8zM399.2 230c10.4 0 19.2-8.8 19.2-19.2V63.3h-30.6V230h11.4z"/>
  </g>
  <path class="airfav-deepteal" d="M0 464h512v48H0z"/>
</svg>