<?xml version="1.0" standalone="no"?>
<!DOCTYPE svg PUBLIC "-//W3C//DTD SVG 20010904//EN" "http://www.w3.org/TR/2001/REC-SVG-20010904/DTD/svg10.dtd">
<svg version="1.0" xmlns="http://www.w3.org/2000/svg"
 width="512px" height="512px" viewBox="0 0 512 512"
 preserveAspectRatio="xMidYMid meet">
<g transform="translate(0,512) scale(0.1,-0.1)" fill="#000000" stroke="none">
<path d="M0 2560 l0 -2560 2560 0 2560 0 0 2560 0 2560 -2560 0 -2560 0 0
-2560z m1416 2056 c61 -28 108 -83 123 -142 8 -31 11 -501 11 -1601 0 -857 0
-1597 0 -1644 l0 -86 73 -9 72 -9 3 -77 3 -78 -231 0 -230 0 0 845 0 845 -150
0 -150 0 0 -765 c0 -722 1 -765 18 -766 9 0 43 0 75 1 l57 1 0 -80 0 -81 -305
0 -305 0 0 79 0 79 75 7 75 7 0 1662 c0 1597 1 1663 19 1702 21 46 83 102 132
120 24 9 120 13 309 13 269 1 276 0 326 -23z m1452 -53 l-3 -78 -77 -3 -78 -3
0 -1674 0 -1675 28 -1 c15 0 50 -1 77 -2 l50 -2 0 -75 0 -75 -307 -3 -306 -2
1 77 2 78 65 2 c36 0 71 1 78 2 9 1 12 343 12 1676 l0 1674 -77 3 -78 3 -3 78
-3 77 311 0 311 0 -3 -77z m1463 66 c50 -16 105 -61 132 -112 l22 -42 3 -680
c3 -713 2 -746 -41 -830 -49 -98 -148 -181 -247 -206 l-50 -13 55 -17 c118
-36 214 -122 257 -227 l23 -57 3 -657 3 -658 74 0 75 0 0 -80 0 -80 -230 0
-230 0 -2 789 -3 789 -31 39 c-46 58 -104 83 -191 83 l-73 0 0 -770 0 -770 75
0 75 0 0 -80 0 -80 -305 0 -305 0 0 75 0 75 75 0 75 0 0 1680 0 1679 -72 3
-73 3 -3 78 -3 77 437 0 c298 0 449 -4 475 -11z m-2271 -1752 c80 -42 110
-137 71 -223 -24 -53 -71 -86 -132 -92 -65 -6 -93 2 -138 43 -69 63 -75 163
-14 236 52 62 137 76 213 36z m1153 9 c111 -46 136 -199 46 -281 -45 -41 -73
-49 -138 -43 -61 6 -108 39 -132 92 -25 55 -24 104 4 157 41 77 137 110 220
75z"/>
<path d="M940 3650 l0 -830 150 0 150 0 0 830 0 830 -150 0 -150 0 0 -830z"/>
<path d="M3880 3650 l0 -830 73 0 c87 0 145 25 191 83 l31 39 3 769 2 769
-150 0 -150 0 0 -830z"/>
</g>
</svg>
