<?xml version="1.0" encoding="utf-8"?><svg xmlns="http://www.w3.org/2000/svg" xmlns:xlink="http://www.w3.org/1999/xlink" viewBox="0 0 720 90"><defs><path id="a" d="M0 0h788v90H0z"/></defs><clipPath id="b"><use xlink:href="#a" overflow="visible"/></clipPath><g clip-path="url(#b)"><path d="M8.3 2.3l-88.1 88m87.1-78l-78.1 78m97.1-88l-88.1 88m87.1-78l-78.1 78m87.1-78l-78.1 78m92.1-83l-83.1 83m87.1-78l-78.1 78m92.1-83l-83.1 83m82.1-73l-73.1 73m77.1-68l-68.1 68m77.1-68l-68.1 68m82.1-73l-73.1 73m72.1-63l-63.1 63m72.1-63l-63.1 63m87.1-78l-78.1 78m77.1-68l-68.1 68m77.1-68l-68.1 68m67.1-58l-58.1 58m67.1-58l-58.1 58m72.1-63l-63.1 63m67.1-58l-58.1 58m72.1-63l-63.1 63m62.1-53l-53.1 53m62.1-53l-53.1 53m62.1-53l-53.1 53m67.1-58l-58.1 58m57.1-48l-48.1 48m57.1-48l-48.1 48m62.1-53l-53.1 53m62.1-53l-53.1 53m57.1-48l-48.1 48m57.1-48l-48.1 48m57.1-48l-48.1 48m47.1-38l-38.1 38m47.1-38l-38.1 38m52.1-43l-43.1 43m52.1-43l-43.1 43m57.1-48l-48.1 48m42.1-33l-33.1 33m42.1-33l-33.1 33m37.1-28l-28.1 28m37.1-28l-28.1 28m42.1-33l-33.1 33m32.1-23l-23.1 23m32.1-23l-23.1 23m32.1-23l-23.1 23m27.1-18l-18.1 18m27.1-18l-18.1 18m27.1-18l-18.1 18m32.1-23l-23.1 23m32.1-23l-23.1 23m22.1-13l-13.1 13m22.1-13l-13.1 13m22.1-13l-13.1 13m27.1-18l-18.1 18m27.1-18l-18.1 18m22.1-13l-13.1 13m22.1-13l-13.1 13m22.1-13l-13.1 13m27.1-18l-18.1 18m32.1-23l-23.1 23m27.1-18l-18.1 18m22.1-13l-13.1 13m22.1-13l-13.1 13m22.1-13l-13.1 13m22.1-13l-13.1 13m17.1-8l-8.1 8m17.1-8l-8.1 8m17.1-8l-8.1 8m17.1-8l-8.1 8m17.1-8l-8.1 8m17.1-8l-8.1 8m22.1-13l-13.1 13m22.1-13l-13.1 13m17.1-8l-8.1 8m17.1-8l-8.1 8m17.1-8l-8.1 8m17.1-8l-8.1 8m17.1-8l-8.1 8m22.1-13l-13.1 13m22.1-13l-13.1 13m22.1-13l-13.1 13m17.1-8l-8.1 8m17.1-8l-8.1 8m17.1-8l-8.1 8m12.1-3l-3.1 3m12.1-3l-3.1 3m12.1-3l-3.1 3" fill="none" stroke="#522b0d" stroke-miterlimit="10" stroke-dasharray="9,6"/></g></svg>