<?xml version="1.0" encoding="utf-8"?><svg version="1.1" id="Layer_1" xmlns="http://www.w3.org/2000/svg" xmlns:xlink="http://www.w3.org/1999/xlink" x="0" y="0" viewBox="0 0 787 86" xml:space="preserve"><style>.st1{fill:none;stroke:#f9ad52;stroke-miterlimit:10;stroke-dasharray:9,6}</style><defs><path id="SVGID_1_" d="M0 0h788v86H0z"/></defs><clipPath id="SVGID_2_"><use xlink:href="#SVGID_1_" overflow="visible"/></clipPath><g clip-path="url(#SVGID_2_)"><path class="st1" d="M785.8 86.3l87.9-88M776.8 86.3l77.9-78M767.8 86.3l87.9-88M758.8 86.3l77.9-78M749.8 86.3l77.9-78M740.8 86.3l82.9-83M731.8 86.3l77.9-78M722.8 86.3l82.9-83M713.8 86.3l72.9-73M704.8 86.3l67.9-68M695.8 86.3l67.9-68M686.8 86.3l72.9-73M677.8 86.3l62.9-63M668.8 86.3l62.9-63M659.8 86.3l77.9-78M650.8 86.3l67.9-68M641.8 86.3l67.9-68M632.8 86.3l57.9-58M623.8 86.3l57.9-58M614.8 86.3l62.9-63M605.8 86.3l57.9-58M596.8 86.3l62.9-63M587.8 86.3l52.9-53M578.8 86.3l52.9-53M569.8 86.3l52.9-53M560.8 86.3l57.9-58M551.8 86.3l47.9-48M542.8 86.3l47.9-48M533.8 86.3l52.9-53M524.8 86.3l52.9-53M515.8 86.3l47.9-48M506.8 86.3l47.9-48M497.8 86.3l47.9-48M488.8 86.3l37.9-38M479.8 86.3l37.9-38M470.8 86.3l42.9-43M461.8 86.3l42.9-43M452.8 86.3l47.9-48M443.8 86.3l32.9-33M434.8 86.3l32.9-33M425.8 86.3l27.9-28M416.8 86.3l27.9-28M407.8 86.3l32.9-33M398.8 86.3l22.9-23M389.8 86.3l22.9-23M380.8 86.3l22.9-23M371.8 86.3l17.9-18M362.8 86.3l17.9-18M353.8 86.3l17.9-18M344.8 86.3l22.9-23M335.8 86.3l22.9-23M326.8 86.3l12.9-13M317.8 86.3l12.9-13M308.8 86.3l12.9-13M299.8 86.3l17.9-18M290.8 86.3l17.9-18M281.8 86.3l12.9-13M272.8 86.3l12.9-13M263.8 86.3l12.9-13M254.8 86.3l17.9-18M245.8 86.3l22.9-23M236.8 86.3l17.9-18M227.8 86.3l12.9-13M218.8 86.3l12.9-13M209.8 86.3l12.9-13M200.8 86.3l12.9-13M191.8 86.3l7.9-8M182.8 86.3l7.9-8M173.8 86.3l7.9-8M164.8 86.3l7.9-8M155.8 86.3l7.9-8M146.8 86.3l7.9-8M137.8 86.3l12.9-13M128.8 86.3l12.9-13M119.8 86.3l7.9-8M110.8 86.3l7.9-8M101.8 86.3l7.9-8M92.8 86.3l7.9-8M83.8 86.3l7.9-8M74.8 86.3l12.9-13M65.8 86.3l12.9-13M56.8 86.3l12.9-13M47.8 86.3l7.9-8M38.8 86.3l7.9-8M29.8 86.3l7.9-8M20.8 86.3l2.9-3M11.8 86.3l2.9-3M2.8 86.3l2.9-3"/></g></svg>