<?xml version="1.0" encoding="utf-8"?><svg xmlns="http://www.w3.org/2000/svg" xmlns:xlink="http://www.w3.org/1999/xlink" viewBox="0 0 720 90"><defs><path id="a" d="M0 0h720v90H0z"/></defs><clipPath id="b"><use xlink:href="#a" overflow="visible"/></clipPath><g clip-path="url(#b)"><path d="M711.7 87.7l88.1-88m-87.1 78l78.1-78m-97.1 88l88.1-88m-87.1 78l78.1-78m-87.1 78l78.1-78m-92.1 83l83.1-83m-87.1 78l78.1-78m-92.1 83l83.1-83m-82.1 73l73.1-73m-77.1 68l68.1-68m-77.1 68l68.1-68m-82.1 73l73.1-73m-72.1 63l63.1-63m-72.1 63l63.1-63m-87.1 78l78.1-78m-77.1 68l68.1-68m-77.1 68l68.1-68m-67.1 58l58.1-58m-67.1 58l58.1-58m-72.1 63l63.1-63m-67.1 58l58.1-58m-72.1 63l63.1-63m-62.1 53l53.1-53m-62.1 53l53.1-53m-62.1 53l53.1-53m-67.1 58l58.1-58m-57.1 48l48.1-48m-57.1 48l48.1-48m-62.1 53l53.1-53m-62.1 53l53.1-53m-57.1 48l48.1-48m-57.1 48l48.1-48m-57.1 48l48.1-48m-47.1 38l38.1-38m-47.1 38l38.1-38m-52.1 43l43.1-43m-52.1 43l43.1-43m-57.1 48l48.1-48m-42.1 33l33.1-33m-42.1 33l33.1-33m-37.1 28l28.1-28m-37.1 28l28.1-28m-42.1 33l33.1-33m-32.1 23l23.1-23m-32.1 23l23.1-23m-32.1 23l23.1-23m-27.1 18l18.1-18m-27.1 18l18.1-18m-27.1 18l18.1-18m-32.1 23l23.1-23m-32.1 23l23.1-23m-22.1 13l13.1-13m-22.1 13l13.1-13m-22.1 13l13.1-13m-27.1 18l18.1-18m-27.1 18l18.1-18m-22.1 13l13.1-13m-22.1 13l13.1-13m-22.1 13l13.1-13m-27.1 18l18.1-18m-32.1 23l23.1-23m-27.1 18l18.1-18m-22.1 13l13.1-13m-22.1 13l13.1-13m-22.1 13l13.1-13m-22.1 13l13.1-13m-17.1 8l8.1-8m-17.1 8l8.1-8m-17.1 8l8.1-8m-17.1 8l8.1-8m-17.1 8l8.1-8m-17.1 8l8.1-8m-22.1 13l13.1-13m-22.1 13l13.1-13m-17.1 8l8.1-8m-17.1 8l8.1-8m-17.1 8l8.1-8m-17.1 8l8.1-8m-17.1 8l8.1-8m-22.1 13l13.1-13m-22.1 13l13.1-13m-22.1 13l13.1-13m-17.1 8l8.1-8m-17.1 8l8.1-8m-17.1 8l8.1-8m-12.1 3l3.1-3m-12.1 3l3.1-3m-12.1 3l3.1-3" fill="none" stroke="#522b0d" stroke-miterlimit="10" stroke-dasharray="9,6"/></g></svg>